<svg width="24" height="24" viewBox="0 0 24 24" fill="none" xmlns="http://www.w3.org/2000/svg">
<path d="M11.9999 24C18.5646 24 24 18.5647 24 12C24 5.44708 18.5529 0 11.9882 0C5.43527 0 0 5.44708 0 12C0 18.5647 5.44705 24 11.9999 24ZM6.78822 16.9177C5.5294 16.9177 4.89409 16.2824 4.89409 15.0588V11.7294C4.89409 11.1647 4.98823 10.9294 5.24704 10.5765L7.37645 7.69412C8.07055 6.72941 8.49407 6.50589 9.55291 6.50589H14.447C15.5058 6.50589 15.9176 6.72941 16.6235 7.69412L18.7529 10.5765C19.0117 10.9294 19.1058 11.1647 19.1058 11.7294V15.0588C19.1058 16.2824 18.4823 16.9177 17.2117 16.9177H6.78822ZM6.59997 11.3294H10.0823C10.4 11.3294 10.5764 11.5765 10.5764 11.8235V11.9765C10.5764 12.8118 11.1176 13.3412 11.9999 13.3412C12.8823 13.3412 13.4588 12.8118 13.4588 11.9765V11.8235C13.4588 11.5765 13.5999 11.3294 13.9176 11.3294H17.3999C17.5882 11.3294 17.6352 11.1529 17.5529 11.0471L15.447 8.18824C15.2117 7.85883 14.9529 7.71766 14.5294 7.71766H9.48232C9.05879 7.71766 8.79997 7.84707 8.55291 8.18824L6.45881 11.0471C6.37645 11.1765 6.41175 11.3294 6.59997 11.3294Z" fill="white"/>
</svg>
