<svg width="24" height="25" viewBox="0 0 24 25" fill="none" xmlns="http://www.w3.org/2000/svg">
<rect x="3" y="5" width="18" height="15" fill="white"/>
<path fill-rule="evenodd" clip-rule="evenodd" d="M12 24.5C18.6274 24.5 24 19.1274 24 12.5C24 5.87258 18.6274 0.5 12 0.5C5.37258 0.5 0 5.87258 0 12.5C0 19.1274 5.37258 24.5 12 24.5ZM7.4686 8.67543C7.4686 9.21809 7.05408 9.65086 6.5343 9.65086C6.02109 9.65086 5.6 9.21809 5.6 8.67543C5.6 8.13963 6.02109 7.7 6.5343 7.7C7.05408 7.7 7.4686 8.13963 7.4686 8.67543ZM18.5618 9.33487H9.6267C9.27141 9.33487 8.99506 9.04636 8.99506 8.67543C8.99506 8.30449 9.27798 8.01599 9.6267 8.01599H18.5618C18.9236 8.01599 19.2 8.30449 19.2 8.67543C19.2 9.04636 18.917 9.33487 18.5618 9.33487ZM7.4686 12.9C7.4686 13.4427 7.05408 13.8754 6.5343 13.8754C6.02109 13.8754 5.6 13.4427 5.6 12.9C5.6 12.3642 6.02109 11.9246 6.5343 11.9246C7.05408 11.9246 7.4686 12.3642 7.4686 12.9ZM18.5618 13.5594H9.6267C9.27141 13.5594 8.99506 13.2709 8.99506 12.9C8.99506 12.5291 9.27798 12.2406 9.6267 12.2406H18.5618C18.9236 12.2406 19.2 12.5291 19.2 12.9C19.2 13.2709 18.917 13.5594 18.5618 13.5594ZM7.4686 17.1246C7.4686 17.6672 7.05408 18.1 6.5343 18.1C6.02109 18.1 5.6 17.6672 5.6 17.1246C5.6 16.5888 6.02109 16.1491 6.5343 16.1491C7.05408 16.1491 7.4686 16.5888 7.4686 17.1246ZM18.5618 17.784H9.6267C9.27141 17.784 8.99506 17.4955 8.99506 17.1246C8.99506 16.7536 9.27798 16.4651 9.6267 16.4651H18.5618C18.9236 16.4651 19.2 16.7536 19.2 17.1246C19.2 17.4955 18.917 17.784 18.5618 17.784Z" fill="#2F7CF6"/>
</svg>
