<svg width="24" height="24" viewBox="0 0 24 24" fill="none" xmlns="http://www.w3.org/2000/svg">
<path d="M11.9999 23.9999C18.5646 23.9999 24 18.5646 24 12C24 5.44706 18.5529 0 11.9882 0C5.43527 0 0 5.44706 0 12C0 18.5646 5.44705 23.9999 11.9999 23.9999ZM7.37645 18.5176C7.07055 18.5176 6.79998 18.2588 6.79998 17.9529V7.77644C6.79998 7.25881 7.05879 6.88234 7.55291 6.65882C7.9882 6.44703 8.36467 6.34116 9.31761 6.34116C11.4941 6.34116 12.8705 7.42351 14.9293 7.42351C15.9293 7.42351 16.4588 7.1647 16.8117 7.1647C17.3058 7.1647 17.4941 7.42351 17.4941 7.78822V13.7529C17.4941 14.3058 17.2588 14.6588 16.7529 14.9058C16.2941 15.1058 15.9176 15.2 14.9882 15.2C12.8941 15.2 11.5294 14.1411 9.37642 14.1411C8.62348 14.1411 8.1529 14.2823 7.91763 14.3764V17.9529C7.91763 18.2705 7.70586 18.5176 7.37645 18.5176Z" fill="#F19938"/>
</svg>
