<svg width="24" height="24" viewBox="0 0 24 24" fill="none" xmlns="http://www.w3.org/2000/svg">
<rect x="4.9201" y="5.62292" width="14.0574" height="12.6517" fill="white"/>
<path d="M11.9488 23.8976C18.4892 23.8976 23.8976 18.501 23.8976 11.9488C23.8976 5.40854 18.4892 0 11.9369 0C5.39665 0 0 5.40854 0 11.9488C0 18.501 5.40856 23.8976 11.9488 23.8976ZM7.4576 17.7981C6.20674 17.7981 5.55151 17.1667 5.55151 15.904V7.99368C5.55151 6.74279 6.20674 6.09949 7.4576 6.09949H16.4163C17.6791 6.09949 18.3343 6.74279 18.3343 7.99368V15.904C18.3343 17.1667 17.6791 17.7981 16.4163 17.7981H7.4576Z" fill="#2F7CF6"/>
<rect x="6.32587" y="8.43445" width="11.2459" height="8.43445" rx="2" fill="#2F7CF6"/>
</svg>
