<svg width="24" height="24" viewBox="0 0 24 24" fill="none" xmlns="http://www.w3.org/2000/svg">
<path d="M12 24C18.5684 24 24 18.5803 24 12C24 5.43171 18.5684 0 11.9881 0C5.41977 0 0 5.43171 0 12C0 18.5803 5.43173 24 12 24ZM7.48956 17.8744C6.23333 17.8744 5.57529 17.2403 5.57529 15.9721V8.02793C5.57529 6.77168 6.23333 6.12563 7.48956 6.12563H16.4866C17.7548 6.12563 18.4128 6.77168 18.4128 8.02793V15.9721C18.4128 17.2403 17.7548 17.8744 16.4866 17.8744H7.48956ZM7.46564 16.9412H16.5225C17.1566 16.9412 17.4557 16.6421 17.4557 16.008V10.0618C17.4557 9.37987 17.0729 9.02094 16.4029 9.02094H7.57331C6.90333 9.02094 6.53244 9.37987 6.53244 10.0618V16.008C6.53244 16.6421 6.83154 16.9412 7.46564 16.9412ZM10.672 11.4138C10.4208 11.4138 10.361 11.3539 10.361 11.1147V10.6481C10.361 10.4088 10.4208 10.3489 10.672 10.3489H11.1147C11.366 10.3489 11.4377 10.4088 11.4377 10.6481V11.1147C11.4377 11.3539 11.366 11.4138 11.1147 11.4138H10.672ZM12.8734 11.4138C12.6222 11.4138 12.5504 11.3539 12.5504 11.1147V10.6481C12.5504 10.4088 12.6222 10.3489 12.8734 10.3489H13.3161C13.5674 10.3489 13.6272 10.4088 13.6272 10.6481V11.1147C13.6272 11.3539 13.5674 11.4138 13.3161 11.4138H12.8734ZM15.0629 11.4138C14.8116 11.4138 14.7399 11.3539 14.7399 11.1147V10.6481C14.7399 10.4088 14.8116 10.3489 15.0629 10.3489H15.5056C15.7568 10.3489 15.8286 10.4088 15.8286 10.6481V11.1147C15.8286 11.3539 15.7568 11.4138 15.5056 11.4138H15.0629ZM8.4826 13.5673C8.23135 13.5673 8.15956 13.5075 8.15956 13.2682V12.8136C8.15956 12.5623 8.23135 12.5025 8.4826 12.5025H8.92526C9.17651 12.5025 9.2483 12.5623 9.2483 12.8136V13.2682C9.2483 13.5075 9.17651 13.5673 8.92526 13.5673H8.4826ZM10.672 13.5673C10.4208 13.5673 10.361 13.5075 10.361 13.2682V12.8136C10.361 12.5623 10.4208 12.5025 10.672 12.5025H11.1147C11.366 12.5025 11.4377 12.5623 11.4377 12.8136V13.2682C11.4377 13.5075 11.366 13.5673 11.1147 13.5673H10.672ZM12.8734 13.5673C12.6222 13.5673 12.5504 13.5075 12.5504 13.2682V12.8136C12.5504 12.5623 12.6222 12.5025 12.8734 12.5025H13.3161C13.5674 12.5025 13.6272 12.5623 13.6272 12.8136V13.2682C13.6272 13.5075 13.5674 13.5673 13.3161 13.5673H12.8734ZM15.0629 13.5673C14.8116 13.5673 14.7399 13.5075 14.7399 13.2682V12.8136C14.7399 12.5623 14.8116 12.5025 15.0629 12.5025H15.5056C15.7568 12.5025 15.8286 12.5623 15.8286 12.8136V13.2682C15.8286 13.5075 15.7568 13.5673 15.5056 13.5673H15.0629ZM8.4826 15.7328C8.23135 15.7328 8.15956 15.661 8.15956 15.4217V14.9671C8.15956 14.7159 8.23135 14.668 8.4826 14.668H8.92526C9.17651 14.668 9.2483 14.7159 9.2483 14.9671V15.4217C9.2483 15.661 9.17651 15.7328 8.92526 15.7328H8.4826ZM10.672 15.7328C10.4208 15.7328 10.361 15.661 10.361 15.4217V14.9671C10.361 14.7159 10.4208 14.668 10.672 14.668H11.1147C11.366 14.668 11.4377 14.7159 11.4377 14.9671V15.4217C11.4377 15.661 11.366 15.7328 11.1147 15.7328H10.672ZM12.8734 15.7328C12.6222 15.7328 12.5504 15.661 12.5504 15.4217V14.9671C12.5504 14.7159 12.6222 14.668 12.8734 14.668H13.3161C13.5674 14.668 13.6272 14.7159 13.6272 14.9671V15.4217C13.6272 15.661 13.5674 15.7328 13.3161 15.7328H12.8734Z" fill="#EC4D3D"/>
</svg>
