<svg width="24" height="24" viewBox="0 0 24 24" fill="none" xmlns="http://www.w3.org/2000/svg">
<rect x="3" y="4.5" width="18" height="15" fill="white"/>
<path fill-rule="evenodd" clip-rule="evenodd" d="M12 24C18.6274 24 24 18.6274 24 12C24 5.37258 18.6274 0 12 0C5.37258 0 0 5.37258 0 12C0 18.6274 5.37258 24 12 24ZM7.4686 8.17543C7.4686 8.71809 7.05409 9.15086 6.5343 9.15086C6.02109 9.15086 5.6 8.71809 5.6 8.17543C5.6 7.63963 6.02109 7.2 6.5343 7.2C7.05409 7.2 7.4686 7.63963 7.4686 8.17543ZM18.5618 8.83487H9.6267C9.27141 8.83487 8.99506 8.54636 8.99506 8.17543C8.99506 7.80449 9.27798 7.51599 9.6267 7.51599H18.5618C18.9236 7.51599 19.2 7.80449 19.2 8.17543C19.2 8.54636 18.917 8.83487 18.5618 8.83487ZM7.4686 12.4C7.4686 12.9427 7.05409 13.3754 6.5343 13.3754C6.02109 13.3754 5.6 12.9427 5.6 12.4C5.6 11.8642 6.02109 11.4246 6.5343 11.4246C7.05409 11.4246 7.4686 11.8642 7.4686 12.4ZM18.5618 13.0594H9.6267C9.27141 13.0594 8.99506 12.7709 8.99506 12.4C8.99506 12.0291 9.27798 11.7406 9.6267 11.7406H18.5618C18.9236 11.7406 19.2 12.0291 19.2 12.4C19.2 12.7709 18.917 13.0594 18.5618 13.0594ZM7.4686 16.6246C7.4686 17.1672 7.05409 17.6 6.5343 17.6C6.02109 17.6 5.6 17.1672 5.6 16.6246C5.6 16.0888 6.02109 15.6491 6.5343 15.6491C7.05409 15.6491 7.4686 16.0888 7.4686 16.6246ZM18.5618 17.284H9.6267C9.27141 17.284 8.99506 16.9955 8.99506 16.6246C8.99506 16.2536 9.27798 15.9651 9.6267 15.9651H18.5618C18.9236 15.9651 19.2 16.2536 19.2 16.6246C19.2 16.9955 18.917 17.284 18.5618 17.284Z" fill="#A35CD7"/>
</svg>
